<svg xmlns="http://www.w3.org/2000/svg" width="299.465" height="300" viewBox="0 0 299.465 300" xml:space="preserve"><path fill-rule="evenodd" clip-rule="evenodd" d="M51.904 0h195.659c28.545 0 51.904 23.696 51.904 52.659v194.68c0 28.965-23.357 52.659-51.904 52.659H51.904C23.354 300 0 276.306 0 247.341V52.659C0 23.696 23.354 0 51.904 0m1.011 27.197h193.633c14.294 0 25.994 11.689 25.994 25.979v193.635c0 14.294-11.699 25.991-25.994 25.991H52.915c-14.294 0-25.991-11.694-25.991-25.991V53.174c-.002-14.287 11.694-25.977 25.991-25.977"/></svg>