<svg xmlns="http://www.w3.org/2000/svg" viewBox="0 0 64 64" xml:space="preserve" width="64" height="64"><path d="M32 0C14.355 0 0 14.355 0 32s14.355 32 32 32 32 -14.355 32 -32S49.645 0 32 0m0 60.483c-15.706 0 -28.483 -12.778 -28.483 -28.484S16.294 3.517 32 3.517 60.483 16.294 60.483 32 47.706 60.483 32 60.483"/><path d="M32 5.145C17.192 5.145 5.145 17.192 5.145 32s12.047 26.855 26.855 26.855 26.855 -12.047 26.855 -26.855S46.808 5.145 32 5.145m24.951 30.591 -1.834 -0.323 -0.227 1.288 1.835 0.323a25.138 25.138 0 0 1 -0.801 2.987l-1.75 -0.637 -0.447 1.229 1.749 0.637a25.138 25.138 0 0 1 -1.312 2.801l-1.608 -0.928 -0.654 1.133 1.605 0.927a25.327 25.327 0 0 1 -1.777 2.529l-1.416 -1.188 -0.841 1.002 1.415 1.187a25.516 25.516 0 0 1 -2.185 2.185l-1.188 -1.415 -1.002 0.841 1.189 1.416a25.327 25.327 0 0 1 -2.53 1.777l-0.926 -1.605 -1.133 0.654 0.928 1.608a25.138 25.138 0 0 1 -2.801 1.312l-0.637 -1.749 -1.229 0.448 0.637 1.749a24.949 24.949 0 0 1 -2.987 0.801l-0.324 -1.834 -1.288 0.227 0.324 1.833a25.327 25.327 0 0 1 -3.081 0.269v-4.986h-1.308v4.986a25.327 25.327 0 0 1 -3.081 -0.269l0.324 -1.833 -1.288 -0.228 -0.324 1.834a24.949 24.949 0 0 1 -2.988 -0.801l0.637 -1.749 -1.229 -0.448 -0.637 1.749a25.138 25.138 0 0 1 -2.801 -1.312l0.928 -1.608 -1.133 -0.654 -0.926 1.605a25.327 25.327 0 0 1 -2.53 -1.777l1.188 -1.416 -1.002 -0.841 -1.188 1.415a25.516 25.516 0 0 1 -2.185 -2.185l1.415 -1.187 -0.841 -1.002 -1.416 1.188a25.327 25.327 0 0 1 -1.777 -2.529l1.605 -0.927 -0.654 -1.133 -1.608 0.928a25.138 25.138 0 0 1 -1.312 -2.801l1.749 -0.637 -0.447 -1.229 -1.749 0.637a24.949 24.949 0 0 1 -0.801 -2.987l1.835 -0.323 -0.227 -1.288 -1.834 0.323a25.327 25.327 0 0 1 -0.269 -3.081h4.986v-1.308H6.781c0.027 -1.044 0.118 -2.072 0.269 -3.081l1.834 0.323 0.227 -1.288 -1.835 -0.323a25.138 25.138 0 0 1 0.801 -2.988l1.749 0.637 0.447 -1.229 -1.749 -0.637a25.138 25.138 0 0 1 1.312 -2.801l1.608 0.928 0.654 -1.133 -1.605 -0.927a25.327 25.327 0 0 1 1.777 -2.529l1.416 1.188 0.841 -1.002 -1.415 -1.187A25.516 25.516 0 0 1 15.297 13.112l1.188 1.416 1.002 -0.841 -1.189 -1.416a25.327 25.327 0 0 1 2.53 -1.777l0.926 1.605 1.133 -0.654 -0.928 -1.608a25.138 25.138 0 0 1 2.801 -1.312l0.637 1.749 1.229 -0.447 -0.637 -1.75a24.949 24.949 0 0 1 2.987 -0.801l0.324 1.835 1.288 -0.227 -0.324 -1.834a25.327 25.327 0 0 1 3.081 -0.269v1.861h1.308v-1.861c1.044 0.027 2.072 0.118 3.081 0.269l-0.324 1.834 1.288 0.227 0.324 -1.835a24.949 24.949 0 0 1 2.987 0.801l-0.637 1.75 1.229 0.447 0.637 -1.749a25.138 25.138 0 0 1 2.801 1.312l-0.928 1.608 1.133 0.654 0.926 -1.605a25.327 25.327 0 0 1 2.53 1.777l-1.189 1.417 1.002 0.841 1.188 -1.416a25.516 25.516 0 0 1 2.186 2.186l-1.415 1.188 0.841 1.002 1.416 -1.188a25.327 25.327 0 0 1 1.776 2.529l-1.605 0.927 0.654 1.133 1.608 -0.929a25.138 25.138 0 0 1 1.312 2.801l-1.749 0.637 0.447 1.229 1.75 -0.637a24.949 24.949 0 0 1 0.801 2.988l-1.835 0.323 0.227 1.288 1.834 -0.323a25.327 25.327 0 0 1 0.269 3.081h-4.986v1.308h4.986a25.327 25.327 0 0 1 -0.269 3.082"/><path d="M35.868 36.105c0.832 -0.294 1.502 -1.335 1.83 -2.663l-3.988 1.342c0.507 1.07 1.31 1.621 2.158 1.321m4.808 -1.68c0.818 -0.289 1.48 -1.3 1.813 -2.595l-3.944 1.327c0.507 1.035 1.299 1.563 2.131 1.268m-12.542 1.68c0.847 0.3 1.65 -0.252 2.157 -1.322l-3.988 -1.342c0.328 1.328 0.998 2.37 1.831 2.664m-4.81 -1.68c0.834 0.295 1.624 -0.233 2.132 -1.268l-3.944 -1.327c0.333 1.295 0.994 2.306 1.812 2.595"/><path d="M40.726 36.622c-1.285 0.454 -2.473 -1.009 -2.706 -3.288l-0.027 0.009c0.113 2.314 -0.793 4.506 -2.074 4.959 -1.297 0.458 -2.494 -1.035 -2.712 -3.349l-1.206 0.406 -1.205 -0.406c-0.218 2.314 -1.416 3.807 -2.712 3.349 -1.282 -0.453 -2.19 -2.646 -2.076 -4.96l-0.028 -0.009c-0.233 2.279 -1.421 3.743 -2.706 3.289 -1.269 -0.449 -2.17 -2.607 -2.076 -4.898l-0.37 -0.125v8.362l11.173 3.761 11.173 -3.761v-8.362l-0.37 0.125c0.094 2.291 -0.808 4.449 -2.077 4.898"/><path d="m20.82 24.34 0.007 0.002v4.512l11.173 3.761 11.173 -3.761v-4.512l0.007 -0.002 -11.18 -4.062zm11.181 2.675 -8.065 -2.712 8.065 -2.93 8.064 2.93z"/><path d="m38.034 20.894 -6.034 -10.94 -6.034 10.92 6.034 -3.554z"/></svg>